<svg width="1000" height="923.2" viewBox="0, 0, 1000, 923.247" preserveAspectRatio="none" xmlns="http://www.w3.org/2000/svg"><path d="M0 0h1000v500H0V0zm40 423.2h230.2v-42.7H88.6v-316H40v358.7zm435.5 0h49V64.6h-49v358.6zm255.5-207v-111h86.7c21 0 37 2.2 47.8 6.8 19 8 28.6 24 28.6 47.3 0 23.3-9 39.4-26 48.4-11 5.7-27 8.5-48 8.5h-89zm0 165.5V255.5h96.4c20.4 0 36.7 2.5 49 7.6 23.4 10 35 28 35 54 0 16-4 29-12 40-12.6 17-34 26-63.7 26L731 382zm-47.6 41.5H835c47.2 0 81.6-14 103.3-42 14.5-18.7 21.7-39.6 21.7-62.7 0-27.5-8-49-24.2-64.7-9-8.8-22.8-16.7-41.2-23.7 12.5-6 22-13 28.8-21 12.8-14 19.3-33 19.3-55 0-19-5.2-36-15.7-51-17.7-25-47.6-37-89.6-37h-154v357.4zM42 532.2h248.6v44H90.2V685h176.3v42.8h-176v163H41.7V532.2zm602 0V575H523v316h-49.4V575h-121v-43H644zm46.5 0H852c32 0 57.5 9 77 27s29 43.2 29 75.8c0 28-8.8 52.4-26 73-17.5 21-44.3 31.2-80.4 31.2H739v151.6h-48.5V532.2zM880 581.6c-11-5-25.5-7.6-44.4-7.6H739v124.2h96.6c22 0 39.6-4.6 53-14 13.8-9.2 20.5-25.5 20.5-49 0-26.3-10-44.2-30-53.7h1z"/></svg>
